<?xml version="1.0" encoding="UTF-8"?>
<!DOCTYPE svg PUBLIC "-//W3C//DTD SVG 1.1//EN" "http://www.w3.org/Graphics/SVG/1.1/DTD/svg11.dtd">
<!-- Creator: CorelDRAW X8 -->
<svg xmlns="http://www.w3.org/2000/svg" xml:space="preserve" width="101.249mm" height="12.4274mm" version="1.1" style="shape-rendering:geometricPrecision; text-rendering:geometricPrecision; image-rendering:optimizeQuality; fill-rule:evenodd; clip-rule:evenodd"
viewBox="0 0 16486 2023"
 xmlns:xlink="http://www.w3.org/1999/xlink">
 <defs>
  <style type="text/css">
   <![CDATA[
    .fil1 {fill:#46619B}
    .fil3 {fill:#606062;fill-rule:nonzero}
    .fil2 {fill:#ED3237;fill-rule:nonzero}
    .fil0 {fill:#46619B;fill-rule:nonzero}
   ]]>
  </style>
 </defs>
 <g id="Camada_x0020_1">
  <metadata id="CorelCorpID_0Corel-Layer"/>
  <g id="_1714452203456">
   <path class="fil0" d="M5909 1657l209 -775 -124 0 -208 775 123 0zm593 -46c-44,168 -209,302 -384,302l-678 0c-183,0 -260,-139 -221,-305l177 -667c23,-81 -5,-238 -73,-292l-62 235 -123 0c-71,261 -140,516 -209,773l124 0 -68 256 -401 0c-184,0 -261,-139 -222,-305l178 -667c30,-113 -2,-193 -74,-265l-242 904c-32,197 12,246 86,333l-1156 0c-187,0 -266,-145 -219,-312l260 -972 580 0 -276 1028 124 0 276 -1028c242,0 484,0 726,0l139 -518 577 0 -136 518c417,0 834,0 1251,0 185,0 270,130 229,302l-183 680z"/>
   <path class="fil1" d="M890 2022l-890 0 1956 -2010 1268 0 -464 1679c-24,168 -6,257 83,332l-1068 -1 97 -340 -653 0 -329 340zm788 -814l329 0 148 -499 -477 499z"/>
  </g>
  <g id="_1714452204448">
   <path class="fil2" d="M12188 1913l-401 0c-184,0 -261,-139 -222,-305l178 -667c25,-93 -13,-317 -137,-312l222 0 139 -518 577 0 -136 518c418,0 837,0 1256,0 185,0 270,130 229,302l-183 680c-44,168 -209,302 -384,302l-678 0c-183,0 -261,-139 -222,-305l178 -667c23,-82 -8,-234 -82,-277l-57 220 -124 0c-71,261 -140,516 -209,773l124 0 -68 256zm3579 0l-580 0 276 -1031 -124 0 -276 1031 -585 0 276 -1031 -126 0 -276 1031 -578 0 258 -972c24,-91 7,-274 -92,-312l1860 0c185,0 270,130 230,302l-263 982zm-2650 -256l209 -775 -124 0 -208 775 123 0zm-1710 -46c-44,168 -209,302 -384,302l-678 0c-183,0 -261,-139 -222,-305l23 -79 578 0 -34 128 124 0 70 -257 -704 0 121 -459c22,-81 -5,-235 -71,-290l-249 929c-22,203 15,254 85,333l-1155 0c-187,0 -266,-145 -219,-312l260 -972 580 0 -276 1028 124 0 276 -1028c568,0 1136,0 1704,0 186,0 270,130 230,302l-23 82 -578 0 34 -131 -124 0 -70 257 704 0 -126 472z"/>
   <path class="fil2" d="M8010 2011l-1018 0c-275,0 -392,-207 -333,-456l289 -1086c38,-140 -19,-476 -205,-469l1797 0c278,0 405,195 344,453l-86 317 -868 0 102 -390 -186 0 -335 1248 185 0 72 -274 875 0c-151,563 -265,657 -633,657z"/>
  </g>
  <path class="fil3" d="M16232 0c43,0 84,11 125,33 41,22 72,53 95,94 23,41 34,83 34,127 0,44 -11,86 -34,126 -22,41 -53,72 -93,95 -41,22 -83,33 -127,33 -44,0 -86,-11 -126,-33 -41,-23 -72,-54 -94,-95 -23,-40 -34,-82 -34,-126 0,-44 11,-86 34,-127 23,-41 55,-72 95,-94 41,-22 82,-33 125,-33zm0 42c-36,0 -70,9 -104,28 -34,18 -60,44 -79,78 -20,34 -29,69 -29,106 0,37 9,72 28,105 19,34 45,60 79,79 33,19 68,28 105,28 37,0 72,-9 106,-28 33,-19 59,-45 78,-79 19,-33 28,-68 28,-105 0,-37 -10,-72 -29,-106 -19,-34 -45,-60 -79,-78 -34,-19 -68,-28 -104,-28zm-111 352l0 -273 94 0c32,0 55,3 69,8 15,5 26,14 35,26 8,13 13,26 13,40 0,20 -8,38 -22,52 -14,15 -33,23 -57,25 10,4 18,9 23,15 11,10 25,29 41,54l33 53 -53 0 -25 -43c-19,-34 -34,-55 -46,-63 -8,-7 -20,-10 -35,-10l-26 0 0 116 -44 0zm44 -153l53 0c26,0 43,-4 53,-12 9,-7 14,-17 14,-30 0,-8 -3,-15 -7,-21 -5,-7 -11,-12 -19,-15 -8,-3 -22,-4 -44,-4l-50 0 0 82z"/>
 </g>
</svg>
